<?xml version="1.0" encoding="UTF-8"?>
<svg id="Calque_2" data-name="Calque 2" xmlns="http://www.w3.org/2000/svg" viewBox="0 0 178.17 90.89">
  <g id="Calque_1-2" data-name="Calque 1">
    <g>
      <path d="M0,50.6c6.04-1.15,9.07-1.68,15.15-2.64.24,1.5.35,2.25.59,3.75-4.05.64-6.07.98-10.11,1.71.35,1.95.53,2.93.88,4.88,3.52-.63,5.28-.93,8.81-1.5.24,1.5.36,2.25.6,3.75-3.5.56-5.25.86-8.74,1.49.55,3.06.83,4.59,1.38,7.65-1.9.34-2.85.52-4.75.88-1.52-7.99-2.29-11.98-3.81-19.97Z"/>
      <path d="M29.65,66.89c-5.4.72-9.14-1.87-9.91-6.9-.76-4.98-1.14-7.47-1.89-12.44,2-.3,3.01-.45,5.01-.73.7,4.99,1.06,7.48,1.76,12.46.38,2.69,2.05,4.11,4.52,3.79,2.47-.33,3.71-2.13,3.38-4.83-.62-5-.93-7.49-1.55-12.49,2-.25,3-.37,5-.59.57,5,.85,7.5,1.42,12.51.57,5.05-2.4,8.53-7.74,9.23Z"/>
      <path d="M45.4,48.11c-2.62.25-3.93.38-6.55.66-.17-1.56-.25-2.34-.42-3.89,7.29-.79,10.94-1.11,18.25-1.62.11,1.56.16,2.34.27,3.91-2.62.18-3.93.28-6.56.5.55,6.54.82,9.81,1.36,16.36-1.93.16-2.9.25-4.83.43-.61-6.54-.92-9.8-1.54-16.34Z"/>
      <path d="M59.35,43.08c3.46-.22,5.19-.32,8.65-.47,4.83-.22,7.88,1.95,7.98,5.47.05,1.7-.78,3.07-2.19,3.9,2.27.7,3.54,2.35,3.6,4.62.1,3.83-2.57,6.06-7.44,6.27-3.73.16-5.59.26-9.31.5-.52-8.12-.78-12.17-1.3-20.29ZM64.57,46.58c.09,1.78.14,2.67.24,4.45,1.34-.07,2.02-.11,3.36-.17,1.88-.09,2.77-1.05,2.72-2.3-.06-1.4-1.06-2.23-2.83-2.15-1.39.06-2.09.1-3.49.17ZM64.99,54.49c.1,1.92.15,2.88.26,4.81,1.77-.09,2.65-.14,4.42-.21,1.82-.08,2.78-1.07,2.73-2.53-.05-1.4-1.13-2.35-3.09-2.27-1.73.08-2.59.12-4.31.21Z"/>
      <path d="M79.37,52.42c-.15-6.58,3.84-10.79,10.47-10.79,6.6,0,10.59,4.21,10.45,10.79-.14,6.55-4.14,10.5-10.44,10.5-6.34,0-10.33-3.95-10.48-10.5ZM95.26,52.33c.05-4.19-1.95-6.79-5.41-6.79-3.49,0-5.49,2.57-5.44,6.79.05,4.19,2.05,6.67,5.44,6.67,3.36,0,5.36-2.48,5.41-6.67Z"/>
      <path d="M103.66,42.3c2.01.06,3.01.09,5.02.17-.26,6.57-.39,9.86-.64,16.43,3.62.14,5.44.23,9.06.44-.09,1.55-.14,2.33-.23,3.88-5.51-.32-8.27-.44-13.79-.6.23-8.13.35-12.19.58-20.32Z"/>
      <path d="M120.75,43.1c6.12.39,9.18.64,15.28,1.23-.15,1.51-.22,2.27-.36,3.78-4.07-.39-6.11-.57-10.19-.87-.13,1.71-.19,2.56-.32,4.26,3.56.27,5.34.42,8.9.75-.14,1.48-.21,2.21-.35,3.69-3.53-.33-5.29-.48-8.83-.75-.14,1.9-.21,2.84-.36,4.74,3.97.3,5.95.47,9.91.85-.15,1.51-.22,2.27-.37,3.78-5.85-.56-8.78-.8-14.63-1.18.52-8.12.79-12.17,1.31-20.29Z"/>
      <path d="M139.13,44.63c3.48.36,5.21.55,8.69.98,4.96.6,7.69,3.41,7.17,7.14-.31,2.22-1.47,3.63-3.24,4.36.85.81,1.29,1.89,1.45,3.42.28,2.55.41,3.82.68,6.37-1.99-.28-2.99-.41-4.99-.67-.18-2.17-.27-3.25-.46-5.43-.16-1.86-.75-2.33-2.52-2.54-1.29-.16-1.93-.23-3.22-.38-.34,2.99-.51,4.49-.85,7.49-1.91-.22-2.87-.32-4.79-.52.83-8.09,1.25-12.13,2.09-20.22ZM143.7,48.95c-.24,2.1-.36,3.15-.6,5.26,1.36.15,2.04.23,3.4.4,2.05.25,3.17-.69,3.37-2.26.2-1.57-.69-2.74-2.61-2.98-1.42-.17-2.14-.26-3.56-.42Z"/>
      <path d="M157.21,57.14c.94-6.51,5.59-10,12.15-8.9,6.53,1.1,9.79,5.92,8.56,12.38-1.23,6.43-5.84,9.66-12.08,8.62-6.27-1.05-9.56-5.61-8.63-12.09ZM172.94,59.7c.74-4.12-.81-7.02-4.23-7.59-3.45-.58-5.85,1.63-6.5,5.79-.65,4.14.92,6.91,4.28,7.48,3.33.56,5.72-1.56,6.46-5.68Z"/>
    </g>
    <g>
      <path d="M32.18,86.42l.38,1.43.36-1.43,2.83-7.98h2.9l-4.47,12.16h-3.38l-4.47-12.16h3.04l2.83,7.98Z"/>
      <path d="M39.85,78.44h2.86v12.16h-2.86v-12.16Z"/>
      <path d="M44.89,78.44h3.02l3.84,6.38.93,1.93-.14-8.32h2.86v12.16h-3.02l-3.84-6.38-.93-1.95.14,8.33h-2.86v-12.16Z"/>
      <path d="M60.69,80.78h-3.77v-2.34h10.43v2.34h-3.77v9.82h-2.88v-9.82Z"/>
      <path d="M74.98,88.33h-4.77l-.8,2.27h-2.88l4.43-12.16h3.43l4.45,12.16h-3.06l-.8-2.27ZM70.99,86.13h3.2l-1.23-3.5-.36-1.38-.38,1.38-1.23,3.5Z"/>
      <path d="M88.24,90.6l-.25-1.36c-.73,1.11-1.95,1.65-3.4,1.65-3.42,0-5.65-2.41-5.65-6.35s2.24-6.38,5.9-6.38c2.61,0,4.83,1.41,5.35,4.19h-3c-.34-1.2-1.2-1.84-2.41-1.84-1.84,0-2.9,1.52-2.9,4.04s1.11,4.01,2.99,4.01c1.3,0,2.4-.71,2.59-2.36h-2.33v-2.16h5.06v6.58h-1.95Z"/>
      <path d="M92.15,78.44h8.73v2.27h-5.87v2.56h5.17v2.22h-5.17v2.84h5.87v2.27h-8.73v-12.16Z"/>
      <path d="M115.68,86.94c0,2.5-2.07,3.95-4.92,3.95s-4.94-1.32-5.37-4.1h3.02c.23,1.2,1.07,1.86,2.36,1.86s1.97-.52,1.97-1.36c0-2.72-7.17-.64-7.17-5.45,0-2.04,1.7-3.68,4.68-3.68,2.52,0,4.7,1.2,5.08,4.01h-3.06c-.25-1.2-.95-1.77-2.13-1.77-1,0-1.63.46-1.63,1.18,0,2.59,7.15.39,7.15,5.37Z"/>
      <path d="M117.25,78.44h2.86v4.77h4.79v-4.77h2.86v12.16h-2.86v-5.06h-4.79v5.06h-2.86v-12.16Z"/>
      <path d="M129.55,84.54c0-3.93,2.33-6.38,6.1-6.38s6.08,2.45,6.08,6.38-2.33,6.35-6.08,6.35-6.1-2.43-6.1-6.35ZM138.8,84.54c0-2.5-1.16-4.04-3.15-4.04s-3.17,1.52-3.17,4.04,1.16,4.01,3.17,4.01,3.15-1.5,3.15-4.01Z"/>
      <path d="M143.51,78.44h4.74c3,0,4.86,1.52,4.86,4.08s-1.88,4.11-4.83,4.11h-1.91v3.97h-2.86v-12.16ZM146.37,80.71v3.65h1.75c1.39,0,2.04-.73,2.04-1.82s-.68-1.82-1.97-1.82h-1.82Z"/>
    </g>
    <g>
      <path d="M83.25,8.79c-.02.33-.17.59-.47.7-3.02,1.87-5.57,4.49-8.42,6.62-.27.22-.26.21-.15.53.92,2.55,1.82,5.09,2.31,7.75.09.51.04,1.06.25,1.55.26.55-.31,1.07-.85.79-2.67-1.44-5.41-4.09-7.97-5.92-.16-.14-.26-.12-.4-.02-2.19,1.39-4.39,2.77-6.51,4.26-.32.22-.79.16-1.1-.12-.28-.25-.33-.66-.16-1.01,1.14-2.27,1.55-4.81,2.24-7.23.07-.25.03-.43-.21-.59-1.74-1.22-3.64-2.75-7.54-5.05-.75-.44-.54-1.77,1.8-1.97,1.35-.11,3.01-.28,4.92-.41,1.12-.09,2.25-.06,3.37-.15.06-.01.15-.12.17-.19.55-2.57,1.18-5.13,2-7.62.06-.37.28-.6.68-.68.37-.07.7.07.86.41.33.73.64,1.46.95,2.18.81,1.84,1.38,3.77,2.09,5.65.05.14.14.2.28.2,3.09.12,6.15-.5,9.23-.65.87,0,2.57-.25,2.63.97Z"/>
      <path d="M96.56,8.98c.01.33.18.58.48.69,3.03,1.83,5.63,4.42,8.51,6.52.27.21.27.2.16.53-.9,2.56-1.75,5.12-2.22,7.78-.07.51-.03,1.06-.22,1.55-.26.55.33,1.07.85.78,2.66-1.47,5.35-4.16,7.9-6.02.15-.14.24-.12.39-.02,2.22,1.36,4.43,2.71,6.57,4.18.31.22.78.15,1.08-.13.28-.25.32-.67.15-1.01-1.15-2.26-1.6-4.79-2.33-7.2-.07-.25-.02-.43.21-.59,1.73-1.25,3.6-2.79,7.48-5.14.73-.45.52-1.77-1.83-1.95-1.35-.09-3.02-.24-4.93-.35-1.13-.08-2.27-.03-3.39-.11-.07-.01-.14-.11-.16-.19-.58-2.57-1.25-5.12-2.11-7.59-.05-.37-.29-.6-.69-.67-.37-.07-.7.08-.85.42-.32.73-.62,1.46-.93,2.2-.77,1.85-1.33,3.79-2.02,5.67-.05.14-.13.2-.28.2-3.09.16-6.16-.42-9.24-.53-.86.02-2.58-.22-2.6,1Z"/>
    </g>
  </g>
</svg>